<svg width="20" height="18" viewBox="0 0 20 18" fill="none" xmlns="http://www.w3.org/2000/svg">
<path fill-rule="evenodd" clip-rule="evenodd" d="M0.399902 6.6001C0.399902 6.28184 0.526331 5.97661 0.751374 5.75157C0.976418 5.52653 1.28164 5.4001 1.5999 5.4001H13.9695C14.2878 5.4001 14.593 5.52653 14.818 5.75157C15.0431 5.97661 15.1695 6.28184 15.1695 6.6001C15.1695 6.91836 15.0431 7.22358 14.818 7.44863C14.593 7.67367 14.2878 7.8001 13.9695 7.8001H1.5999C1.28164 7.8001 0.976418 7.67367 0.751374 7.44863C0.526331 7.22358 0.399902 6.91836 0.399902 6.6001ZM0.399902 1.8001C0.399902 1.48184 0.526331 1.17661 0.751374 0.951569C0.976418 0.726526 1.28164 0.600098 1.5999 0.600098H18.3999C18.7182 0.600098 19.0234 0.726526 19.2484 0.951569C19.4735 1.17661 19.5999 1.48184 19.5999 1.8001C19.5999 2.11836 19.4735 2.42358 19.2484 2.64863C19.0234 2.87367 18.7182 3.0001 18.3999 3.0001H1.5999C1.28164 3.0001 0.976418 2.87367 0.751374 2.64863C0.526331 2.42358 0.399902 2.11836 0.399902 1.8001ZM0.399902 11.4001C0.399902 11.0818 0.526331 10.7766 0.751374 10.5516C0.976418 10.3265 1.28164 10.2001 1.5999 10.2001H18.3999C18.7182 10.2001 19.0234 10.3265 19.2484 10.5516C19.4735 10.7766 19.5999 11.0818 19.5999 11.4001C19.5999 11.7184 19.4735 12.0236 19.2484 12.2486C19.0234 12.4737 18.7182 12.6001 18.3999 12.6001H1.5999C1.28164 12.6001 0.976418 12.4737 0.751374 12.2486C0.526331 12.0236 0.399902 11.7184 0.399902 11.4001ZM0.399902 16.2001C0.399902 15.8818 0.526331 15.5766 0.751374 15.3516C0.976418 15.1265 1.28164 15.0001 1.5999 15.0001H13.9695C14.2878 15.0001 14.593 15.1265 14.818 15.3516C15.0431 15.5766 15.1695 15.8818 15.1695 16.2001C15.1695 16.5184 15.0431 16.8236 14.818 17.0486C14.593 17.2737 14.2878 17.4001 13.9695 17.4001H1.5999C1.28164 17.4001 0.976418 17.2737 0.751374 17.0486C0.526331 16.8236 0.399902 16.5184 0.399902 16.2001Z" fill="black"/>
</svg>
